<mxfile host="app.diagrams.net" modified="2024-06-13T07:15:18.916Z" agent="Mozilla/5.0 (Windows NT 10.0; Win64; x64) AppleWebKit/537.36 (KHTML, like Gecko) Chrome/125.0.0.0 Safari/537.36" etag="MJpySrn3ErEuypXs49ZC" version="24.3.1" type="github">
  <diagram name="Page-1" id="2a216829-ef6e-dabb-86c1-c78162f3ba2b">
    <mxGraphModel dx="812" dy="812" grid="1" gridSize="10" guides="1" tooltips="1" connect="1" arrows="1" fold="1" page="1" pageScale="1" pageWidth="850" pageHeight="1100" background="none" math="0" shadow="0">
      <root>
        <mxCell id="0" />
        <mxCell id="1" parent="0" />
        <mxCell id="7a84cebc1def654-1" value="" style="shape=mxgraph.bpmn.shape;html=1;verticalLabelPosition=bottom;labelBackgroundColor=#ffffff;verticalAlign=top;perimeter=ellipsePerimeter;outline=standard;symbol=general;" parent="1" vertex="1">
          <mxGeometry x="260" y="265" width="50" height="50" as="geometry" />
        </mxCell>
        <mxCell id="7a84cebc1def654-36" style="edgeStyle=orthogonalEdgeStyle;rounded=0;html=1;jettySize=auto;orthogonalLoop=1;" parent="1" source="7a84cebc1def654-1" edge="1">
          <mxGeometry relative="1" as="geometry">
            <mxPoint x="360" y="290" as="targetPoint" />
          </mxGeometry>
        </mxCell>
        <mxCell id="sqmaxUH0f7V7SQ7GUFhZ-1" value="" style="rounded=0;whiteSpace=wrap;html=1;" vertex="1" parent="1">
          <mxGeometry x="360" y="260" width="530" height="80" as="geometry" />
        </mxCell>
        <mxCell id="sqmaxUH0f7V7SQ7GUFhZ-4" value="&lt;b&gt;&lt;font style=&quot;font-size: 27px;&quot;&gt;OTO 자전거 여행 서비스&lt;/font&gt;&lt;/b&gt;" style="text;html=1;align=center;verticalAlign=middle;whiteSpace=wrap;rounded=0;" vertex="1" parent="1">
          <mxGeometry x="90" y="30" width="300" height="30" as="geometry" />
        </mxCell>
        <mxCell id="sqmaxUH0f7V7SQ7GUFhZ-5" value="Flowchart&lt;div&gt;Version 1.0.0&amp;nbsp; 2024.06.13&lt;/div&gt;" style="text;html=1;align=center;verticalAlign=middle;whiteSpace=wrap;rounded=0;" vertex="1" parent="1">
          <mxGeometry x="90" y="80" width="170" height="30" as="geometry" />
        </mxCell>
        <mxCell id="sqmaxUH0f7V7SQ7GUFhZ-6" value="Text" style="text;html=1;align=center;verticalAlign=middle;whiteSpace=wrap;rounded=0;" vertex="1" parent="1">
          <mxGeometry x="300" y="200" width="60" height="30" as="geometry" />
        </mxCell>
        <mxCell id="sqmaxUH0f7V7SQ7GUFhZ-8" value="mainPage&lt;div&gt;Scroll_1&lt;/div&gt;" style="rounded=0;whiteSpace=wrap;html=1;" vertex="1" parent="1">
          <mxGeometry x="370" y="270" width="120" height="60" as="geometry" />
        </mxCell>
        <mxCell id="sqmaxUH0f7V7SQ7GUFhZ-9" value="mainPage&lt;div&gt;Scroll_2&lt;/div&gt;" style="rounded=0;whiteSpace=wrap;html=1;" vertex="1" parent="1">
          <mxGeometry x="500" y="270" width="120" height="60" as="geometry" />
        </mxCell>
        <mxCell id="sqmaxUH0f7V7SQ7GUFhZ-10" value="mainPage&lt;div&gt;Scroll_4&lt;/div&gt;" style="rounded=0;whiteSpace=wrap;html=1;" vertex="1" parent="1">
          <mxGeometry x="760" y="270" width="120" height="60" as="geometry" />
        </mxCell>
        <mxCell id="sqmaxUH0f7V7SQ7GUFhZ-11" value="mainPage&lt;div&gt;Scroll_3&lt;/div&gt;" style="rounded=0;whiteSpace=wrap;html=1;" vertex="1" parent="1">
          <mxGeometry x="630" y="270" width="120" height="60" as="geometry" />
        </mxCell>
        <mxCell id="sqmaxUH0f7V7SQ7GUFhZ-12" value="메인 홈페이지" style="text;html=1;align=center;verticalAlign=middle;whiteSpace=wrap;rounded=0;" vertex="1" parent="1">
          <mxGeometry x="350" y="235" width="110" height="30" as="geometry" />
        </mxCell>
        <mxCell id="sqmaxUH0f7V7SQ7GUFhZ-13" value="경로 추천" style="rounded=0;whiteSpace=wrap;html=1;" vertex="1" parent="1">
          <mxGeometry x="1050" y="270" width="120" height="60" as="geometry" />
        </mxCell>
        <mxCell id="sqmaxUH0f7V7SQ7GUFhZ-14" value="지역알림" style="rounded=0;whiteSpace=wrap;html=1;" vertex="1" parent="1">
          <mxGeometry x="1040" y="700" width="120" height="60" as="geometry" />
        </mxCell>
        <mxCell id="sqmaxUH0f7V7SQ7GUFhZ-15" value="자전거 안전수칙&lt;div&gt;정보&lt;/div&gt;" style="rounded=0;whiteSpace=wrap;html=1;" vertex="1" parent="1">
          <mxGeometry x="1040" y="780" width="120" height="60" as="geometry" />
        </mxCell>
        <mxCell id="sqmaxUH0f7V7SQ7GUFhZ-16" value="커뮤니티" style="rounded=0;whiteSpace=wrap;html=1;" vertex="1" parent="1">
          <mxGeometry x="1040" y="870" width="120" height="60" as="geometry" />
        </mxCell>
        <mxCell id="sqmaxUH0f7V7SQ7GUFhZ-19" value="" style="endArrow=classic;html=1;rounded=0;entryX=0;entryY=0.5;entryDx=0;entryDy=0;exitX=1;exitY=0.5;exitDx=0;exitDy=0;" edge="1" parent="1" source="sqmaxUH0f7V7SQ7GUFhZ-1" target="sqmaxUH0f7V7SQ7GUFhZ-13">
          <mxGeometry width="50" height="50" relative="1" as="geometry">
            <mxPoint x="650" y="490" as="sourcePoint" />
            <mxPoint x="700" y="440" as="targetPoint" />
          </mxGeometry>
        </mxCell>
        <mxCell id="sqmaxUH0f7V7SQ7GUFhZ-21" value="" style="endArrow=classic;html=1;rounded=0;entryX=0;entryY=0.5;entryDx=0;entryDy=0;exitX=1;exitY=0.5;exitDx=0;exitDy=0;" edge="1" parent="1" source="sqmaxUH0f7V7SQ7GUFhZ-1" target="sqmaxUH0f7V7SQ7GUFhZ-14">
          <mxGeometry width="50" height="50" relative="1" as="geometry">
            <mxPoint x="650" y="490" as="sourcePoint" />
            <mxPoint x="700" y="440" as="targetPoint" />
            <Array as="points">
              <mxPoint x="960" y="300" />
              <mxPoint x="960" y="390" />
            </Array>
          </mxGeometry>
        </mxCell>
        <mxCell id="sqmaxUH0f7V7SQ7GUFhZ-22" value="" style="endArrow=classic;html=1;rounded=0;entryX=0;entryY=0.5;entryDx=0;entryDy=0;exitX=1;exitY=0.5;exitDx=0;exitDy=0;" edge="1" parent="1" source="sqmaxUH0f7V7SQ7GUFhZ-1" target="sqmaxUH0f7V7SQ7GUFhZ-15">
          <mxGeometry width="50" height="50" relative="1" as="geometry">
            <mxPoint x="810" y="500" as="sourcePoint" />
            <mxPoint x="860" y="450" as="targetPoint" />
            <Array as="points">
              <mxPoint x="960" y="300" />
              <mxPoint x="960" y="470" />
            </Array>
          </mxGeometry>
        </mxCell>
        <mxCell id="sqmaxUH0f7V7SQ7GUFhZ-23" value="" style="endArrow=classic;html=1;rounded=0;entryX=0;entryY=0.5;entryDx=0;entryDy=0;exitX=1;exitY=0.5;exitDx=0;exitDy=0;" edge="1" parent="1" source="sqmaxUH0f7V7SQ7GUFhZ-1" target="sqmaxUH0f7V7SQ7GUFhZ-16">
          <mxGeometry width="50" height="50" relative="1" as="geometry">
            <mxPoint x="810" y="500" as="sourcePoint" />
            <mxPoint x="860" y="450" as="targetPoint" />
            <Array as="points">
              <mxPoint x="960" y="300" />
              <mxPoint x="960" y="560" />
            </Array>
          </mxGeometry>
        </mxCell>
        <mxCell id="sqmaxUH0f7V7SQ7GUFhZ-24" value="카테고리별&lt;div&gt;직접 검색&lt;/div&gt;" style="rounded=0;whiteSpace=wrap;html=1;" vertex="1" parent="1">
          <mxGeometry x="1240" y="270" width="140" height="60" as="geometry" />
        </mxCell>
        <mxCell id="sqmaxUH0f7V7SQ7GUFhZ-25" value="" style="endArrow=classic;html=1;rounded=0;entryX=0;entryY=0.5;entryDx=0;entryDy=0;" edge="1" parent="1" target="sqmaxUH0f7V7SQ7GUFhZ-24">
          <mxGeometry width="50" height="50" relative="1" as="geometry">
            <mxPoint x="1170" y="300" as="sourcePoint" />
            <mxPoint x="1060" y="310" as="targetPoint" />
          </mxGeometry>
        </mxCell>
        <mxCell id="sqmaxUH0f7V7SQ7GUFhZ-46" style="edgeStyle=orthogonalEdgeStyle;rounded=0;orthogonalLoop=1;jettySize=auto;html=1;exitX=1;exitY=0.5;exitDx=0;exitDy=0;entryX=0;entryY=0.5;entryDx=0;entryDy=0;" edge="1" parent="1" source="sqmaxUH0f7V7SQ7GUFhZ-26" target="sqmaxUH0f7V7SQ7GUFhZ-41">
          <mxGeometry relative="1" as="geometry" />
        </mxCell>
        <mxCell id="sqmaxUH0f7V7SQ7GUFhZ-47" style="edgeStyle=orthogonalEdgeStyle;rounded=0;orthogonalLoop=1;jettySize=auto;html=1;exitX=1;exitY=0.5;exitDx=0;exitDy=0;entryX=0;entryY=0.5;entryDx=0;entryDy=0;" edge="1" parent="1" source="sqmaxUH0f7V7SQ7GUFhZ-26" target="sqmaxUH0f7V7SQ7GUFhZ-44">
          <mxGeometry relative="1" as="geometry" />
        </mxCell>
        <mxCell id="sqmaxUH0f7V7SQ7GUFhZ-48" style="edgeStyle=orthogonalEdgeStyle;rounded=0;orthogonalLoop=1;jettySize=auto;html=1;exitX=1;exitY=0.5;exitDx=0;exitDy=0;entryX=0;entryY=0.5;entryDx=0;entryDy=0;" edge="1" parent="1" source="sqmaxUH0f7V7SQ7GUFhZ-26" target="sqmaxUH0f7V7SQ7GUFhZ-40">
          <mxGeometry relative="1" as="geometry" />
        </mxCell>
        <mxCell id="sqmaxUH0f7V7SQ7GUFhZ-49" style="edgeStyle=orthogonalEdgeStyle;rounded=0;orthogonalLoop=1;jettySize=auto;html=1;exitX=1;exitY=0.5;exitDx=0;exitDy=0;entryX=0;entryY=0.5;entryDx=0;entryDy=0;" edge="1" parent="1" source="sqmaxUH0f7V7SQ7GUFhZ-26" target="sqmaxUH0f7V7SQ7GUFhZ-42">
          <mxGeometry relative="1" as="geometry" />
        </mxCell>
        <mxCell id="sqmaxUH0f7V7SQ7GUFhZ-26" value="" style="rounded=0;whiteSpace=wrap;html=1;" vertex="1" parent="1">
          <mxGeometry x="1240" y="390" width="520" height="80" as="geometry" />
        </mxCell>
        <mxCell id="sqmaxUH0f7V7SQ7GUFhZ-37" style="edgeStyle=orthogonalEdgeStyle;rounded=0;orthogonalLoop=1;jettySize=auto;html=1;exitX=1;exitY=0.5;exitDx=0;exitDy=0;entryX=0;entryY=0.5;entryDx=0;entryDy=0;" edge="1" parent="1" source="sqmaxUH0f7V7SQ7GUFhZ-27" target="sqmaxUH0f7V7SQ7GUFhZ-28">
          <mxGeometry relative="1" as="geometry" />
        </mxCell>
        <mxCell id="sqmaxUH0f7V7SQ7GUFhZ-27" value="경로유형 선택" style="rounded=0;whiteSpace=wrap;html=1;" vertex="1" parent="1">
          <mxGeometry x="1250" y="400" width="120" height="60" as="geometry" />
        </mxCell>
        <mxCell id="sqmaxUH0f7V7SQ7GUFhZ-38" style="edgeStyle=orthogonalEdgeStyle;rounded=0;orthogonalLoop=1;jettySize=auto;html=1;exitX=1;exitY=0.5;exitDx=0;exitDy=0;entryX=0;entryY=0.5;entryDx=0;entryDy=0;" edge="1" parent="1" source="sqmaxUH0f7V7SQ7GUFhZ-28" target="sqmaxUH0f7V7SQ7GUFhZ-29">
          <mxGeometry relative="1" as="geometry" />
        </mxCell>
        <mxCell id="sqmaxUH0f7V7SQ7GUFhZ-28" value="선택 유형&amp;nbsp;&lt;div&gt;하위 항목 리스트&lt;/div&gt;" style="rounded=0;whiteSpace=wrap;html=1;" vertex="1" parent="1">
          <mxGeometry x="1440" y="400" width="120" height="60" as="geometry" />
        </mxCell>
        <mxCell id="sqmaxUH0f7V7SQ7GUFhZ-29" value="선택된 코스 정보" style="rounded=0;whiteSpace=wrap;html=1;" vertex="1" parent="1">
          <mxGeometry x="1630" y="400" width="120" height="60" as="geometry" />
        </mxCell>
        <mxCell id="sqmaxUH0f7V7SQ7GUFhZ-34" value="&lt;font style=&quot;font-size: 15px;&quot;&gt;경로별 추천유형&lt;/font&gt;" style="text;html=1;align=center;verticalAlign=middle;whiteSpace=wrap;rounded=0;" vertex="1" parent="1">
          <mxGeometry x="1230" y="360" width="130" height="30" as="geometry" />
        </mxCell>
        <mxCell id="sqmaxUH0f7V7SQ7GUFhZ-35" value="" style="endArrow=classic;html=1;rounded=0;exitX=1;exitY=0.5;exitDx=0;exitDy=0;" edge="1" parent="1" source="sqmaxUH0f7V7SQ7GUFhZ-13">
          <mxGeometry width="50" height="50" relative="1" as="geometry">
            <mxPoint x="1180" y="310" as="sourcePoint" />
            <mxPoint x="1240" y="410" as="targetPoint" />
            <Array as="points">
              <mxPoint x="1200" y="300" />
              <mxPoint x="1200" y="410" />
            </Array>
          </mxGeometry>
        </mxCell>
        <mxCell id="sqmaxUH0f7V7SQ7GUFhZ-40" value="공유하기" style="rounded=0;whiteSpace=wrap;html=1;" vertex="1" parent="1">
          <mxGeometry x="1800" y="540" width="120" height="60" as="geometry" />
        </mxCell>
        <mxCell id="sqmaxUH0f7V7SQ7GUFhZ-50" style="edgeStyle=orthogonalEdgeStyle;rounded=0;orthogonalLoop=1;jettySize=auto;html=1;exitX=1;exitY=0.5;exitDx=0;exitDy=0;entryX=0;entryY=0.5;entryDx=0;entryDy=0;" edge="1" parent="1" source="sqmaxUH0f7V7SQ7GUFhZ-41" target="sqmaxUH0f7V7SQ7GUFhZ-45">
          <mxGeometry relative="1" as="geometry" />
        </mxCell>
        <mxCell id="sqmaxUH0f7V7SQ7GUFhZ-41" value="지도로 보기" style="rounded=0;whiteSpace=wrap;html=1;" vertex="1" parent="1">
          <mxGeometry x="1800" y="400" width="120" height="60" as="geometry" />
        </mxCell>
        <mxCell id="sqmaxUH0f7V7SQ7GUFhZ-42" value="코스 저장" style="rounded=0;whiteSpace=wrap;html=1;" vertex="1" parent="1">
          <mxGeometry x="1800" y="610" width="120" height="60" as="geometry" />
        </mxCell>
        <mxCell id="sqmaxUH0f7V7SQ7GUFhZ-44" value="코스 리뷰" style="rounded=0;whiteSpace=wrap;html=1;" vertex="1" parent="1">
          <mxGeometry x="1800" y="470" width="120" height="60" as="geometry" />
        </mxCell>
        <mxCell id="sqmaxUH0f7V7SQ7GUFhZ-45" value="경로상&lt;div&gt;추천 장소&lt;/div&gt;" style="rounded=0;whiteSpace=wrap;html=1;" vertex="1" parent="1">
          <mxGeometry x="1950" y="400" width="120" height="60" as="geometry" />
        </mxCell>
      </root>
    </mxGraphModel>
  </diagram>
</mxfile>
